<mxfile host="app.diagrams.net" agent="Mozilla/5.0 (Windows NT 10.0; Win64; x64) AppleWebKit/537.36 (KHTML, like Gecko) Chrome/129.0.0.0 Safari/537.36" version="24.7.16">
  <diagram name="Page-1" id="74e2e168-ea6b-b213-b513-2b3c1d86103e">
    <mxGraphModel dx="453" dy="484" grid="1" gridSize="10" guides="1" tooltips="1" connect="1" arrows="1" fold="1" page="1" pageScale="1" pageWidth="1100" pageHeight="850" background="none" math="0" shadow="0">
      <root>
        <mxCell id="0" />
        <mxCell id="1" parent="0" />
        <mxCell id="77e6c97f196da883-1" value="Pool" style="swimlane;html=1;childLayout=stackLayout;startSize=20;rounded=0;shadow=0;labelBackgroundColor=none;strokeWidth=1;fontFamily=Verdana;fontSize=8;align=center;" parent="1" vertex="1">
          <mxGeometry x="70" y="40" width="980" height="750" as="geometry" />
        </mxCell>
        <mxCell id="77e6c97f196da883-2" value="Customer" style="swimlane;html=1;startSize=20;" parent="77e6c97f196da883-1" vertex="1">
          <mxGeometry y="20" width="160" height="730" as="geometry" />
        </mxCell>
        <mxCell id="dxA8F3odwscXsq0UWhuK-2" value="" style="edgeStyle=orthogonalEdgeStyle;rounded=0;orthogonalLoop=1;jettySize=auto;html=1;" parent="77e6c97f196da883-2" source="rgaB3htRBJ5-9n0NGsLe-1" target="dxA8F3odwscXsq0UWhuK-1" edge="1">
          <mxGeometry relative="1" as="geometry" />
        </mxCell>
        <mxCell id="rgaB3htRBJ5-9n0NGsLe-1" value="Start" style="ellipse;whiteSpace=wrap;html=1;" parent="77e6c97f196da883-2" vertex="1">
          <mxGeometry x="45" y="50" width="70" height="30" as="geometry" />
        </mxCell>
        <mxCell id="ZIjQ0YNgkoybc5bCaPH_-2" value="" style="edgeStyle=orthogonalEdgeStyle;rounded=0;orthogonalLoop=1;jettySize=auto;html=1;" edge="1" parent="77e6c97f196da883-2" source="dxA8F3odwscXsq0UWhuK-1" target="ZIjQ0YNgkoybc5bCaPH_-1">
          <mxGeometry relative="1" as="geometry" />
        </mxCell>
        <mxCell id="dxA8F3odwscXsq0UWhuK-1" value="Submits purchase order" style="rounded=1;whiteSpace=wrap;html=1;" parent="77e6c97f196da883-2" vertex="1">
          <mxGeometry x="25" y="110" width="110" height="40" as="geometry" />
        </mxCell>
        <mxCell id="ZIjQ0YNgkoybc5bCaPH_-1" value="Purchase Order Details" style="shape=document;whiteSpace=wrap;html=1;boundedLbl=1;rounded=1;" vertex="1" parent="77e6c97f196da883-2">
          <mxGeometry x="30" y="180" width="100" height="50" as="geometry" />
        </mxCell>
        <mxCell id="77e6c97f196da883-3" value="Sales Dept" style="swimlane;html=1;startSize=20;" parent="77e6c97f196da883-1" vertex="1">
          <mxGeometry x="160" y="20" width="180" height="730" as="geometry" />
        </mxCell>
        <mxCell id="ZIjQ0YNgkoybc5bCaPH_-7" value="" style="edgeStyle=orthogonalEdgeStyle;rounded=0;orthogonalLoop=1;jettySize=auto;html=1;" edge="1" parent="77e6c97f196da883-3" source="ZIjQ0YNgkoybc5bCaPH_-4" target="ZIjQ0YNgkoybc5bCaPH_-6">
          <mxGeometry relative="1" as="geometry" />
        </mxCell>
        <mxCell id="ZIjQ0YNgkoybc5bCaPH_-4" value="Receive Purchase Order" style="rounded=1;whiteSpace=wrap;html=1;" vertex="1" parent="77e6c97f196da883-3">
          <mxGeometry x="30" y="40" width="120" height="40" as="geometry" />
        </mxCell>
        <mxCell id="ZIjQ0YNgkoybc5bCaPH_-6" value="Manual Input or Automated" style="rhombus;whiteSpace=wrap;html=1;rounded=1;" vertex="1" parent="77e6c97f196da883-3">
          <mxGeometry x="50" y="140" width="80" height="80" as="geometry" />
        </mxCell>
        <mxCell id="77e6c97f196da883-4" value="Warehouse" style="swimlane;html=1;startSize=20;" parent="77e6c97f196da883-1" vertex="1">
          <mxGeometry x="340" y="20" width="160" height="730" as="geometry" />
        </mxCell>
        <mxCell id="77e6c97f196da883-5" value="Production" style="swimlane;html=1;startSize=20;" parent="77e6c97f196da883-1" vertex="1">
          <mxGeometry x="500" y="20" width="160" height="730" as="geometry" />
        </mxCell>
        <mxCell id="77e6c97f196da883-6" value="Finance" style="swimlane;html=1;startSize=20;" parent="77e6c97f196da883-1" vertex="1">
          <mxGeometry x="660" y="20" width="160" height="730" as="geometry" />
        </mxCell>
        <mxCell id="77e6c97f196da883-7" value="Shipping" style="swimlane;html=1;startSize=20;" parent="77e6c97f196da883-1" vertex="1">
          <mxGeometry x="820" y="20" width="160" height="730" as="geometry" />
        </mxCell>
        <mxCell id="ZIjQ0YNgkoybc5bCaPH_-5" value="" style="edgeStyle=orthogonalEdgeStyle;rounded=0;orthogonalLoop=1;jettySize=auto;html=1;" edge="1" parent="77e6c97f196da883-1" source="ZIjQ0YNgkoybc5bCaPH_-1" target="ZIjQ0YNgkoybc5bCaPH_-4">
          <mxGeometry relative="1" as="geometry">
            <Array as="points">
              <mxPoint x="170" y="235" />
              <mxPoint x="170" y="90" />
            </Array>
          </mxGeometry>
        </mxCell>
      </root>
    </mxGraphModel>
  </diagram>
</mxfile>
